<?xml version="1.0" encoding="UTF-8"?>
<!DOCTYPE svg PUBLIC "-//W3C//DTD SVG 1.1//EN" "http://www.w3.org/Graphics/SVG/1.1/DTD/svg11.dtd">
<svg xmlns="http://www.w3.org/2000/svg" version="1.1" width="666px" height="374px" style="shape-rendering:geometricPrecision; text-rendering:geometricPrecision; image-rendering:optimizeQuality; fill-rule:evenodd; clip-rule:evenodd" xmlns:xlink="http://www.w3.org/1999/xlink">
<g><path style="opacity:1" fill="#0e0e0e" d="M 367.5,109.5 C 367.821,111.048 368.821,111.715 370.5,111.5C 375.5,114.5 379.5,118.5 382.5,123.5C 382.427,125.027 383.094,126.027 384.5,126.5C 384.427,128.027 385.094,129.027 386.5,129.5C 392.192,138.594 394.859,148.594 394.5,159.5C 394.5,160.5 394.5,161.5 394.5,162.5C 360.329,162.168 326.329,162.502 292.5,163.5C 293.222,170.492 293.888,177.492 294.5,184.5C 294.294,187.495 294.96,190.162 296.5,192.5C 299.343,198.339 302.01,204.339 304.5,210.5C 304.427,212.027 305.094,213.027 306.5,213.5C 308.167,214.5 309.5,215.833 310.5,217.5C 310.833,219.833 312.167,221.167 314.5,221.5C 328.653,234.283 344.986,237.783 363.5,232C 368.595,229.394 373.262,226.228 377.5,222.5C 379.262,221.738 380.262,220.404 380.5,218.5C 380.328,217.508 380.662,216.842 381.5,216.5C 383.262,215.738 384.262,214.404 384.5,212.5C 386.045,208.363 387.878,204.363 390,200.5C 391.918,201.542 393.751,202.708 395.5,204C 391.751,222.17 383.084,237.504 369.5,250C 354.509,260.718 338.176,263.885 320.5,259.5C 318.485,258.076 316.152,257.41 313.5,257.5C 309.418,256.624 305.751,254.957 302.5,252.5C 302.027,251.094 301.027,250.427 299.5,250.5C 293.5,246.5 288.5,241.5 284.5,235.5C 284.715,233.821 284.048,232.821 282.5,232.5C 273.655,217.459 269.322,201.126 269.5,183.5C 269.426,167.134 273.093,151.801 280.5,137.5C 281.906,137.027 282.573,136.027 282.5,134.5C 283.079,131.669 284.412,129.336 286.5,127.5C 287.906,127.027 288.573,126.027 288.5,124.5C 289.167,123.167 290.167,122.167 291.5,121.5C 294.089,120.581 296.089,118.914 297.5,116.5C 299.8,114.016 302.467,112.016 305.5,110.5C 307.027,110.573 308.027,109.906 308.5,108.5C 309.93,107.463 311.597,106.796 313.5,106.5C 317.162,106.277 320.495,105.277 323.5,103.5C 338.914,99.797 353.58,101.797 367.5,109.5 Z M 341.5,116.5 C 341.973,117.906 342.973,118.573 344.5,118.5C 353.686,125.857 359.019,135.524 360.5,147.5C 360.5,149.167 360.5,150.833 360.5,152.5C 338.167,152.5 315.833,152.5 293.5,152.5C 294.992,140.015 300.326,129.515 309.5,121C 319.388,114.23 330.054,112.73 341.5,116.5 Z"/></g>
<g><path style="opacity:0.949" fill="#5a5a5a" d="M 323.5,103.5 C 320.495,105.277 317.162,106.277 313.5,106.5C 316.505,104.723 319.838,103.723 323.5,103.5 Z"/></g>
<g><path style="opacity:0.808" fill="#7e7e7e" d="M 308.5,108.5 C 308.027,109.906 307.027,110.573 305.5,110.5C 305.973,109.094 306.973,108.427 308.5,108.5 Z"/></g>
<g><path style="opacity:0.941" fill="#7c7c7c" d="M 367.5,109.5 C 368.71,109.932 369.71,110.599 370.5,111.5C 368.821,111.715 367.821,111.048 367.5,109.5 Z"/></g>
<g><path style="opacity:0.337" fill="#a2a2a2" d="M 341.5,116.5 C 343.027,116.427 344.027,117.094 344.5,118.5C 342.973,118.573 341.973,117.906 341.5,116.5 Z"/></g>
<g><path style="opacity:0.808" fill="#6d6d6d" d="M 297.5,116.5 C 296.089,118.914 294.089,120.581 291.5,121.5C 292.911,119.086 294.911,117.419 297.5,116.5 Z"/></g>
<g><path style="opacity:0.443" fill="#9e9e9e" d="M 382.5,123.5 C 383.906,123.973 384.573,124.973 384.5,126.5C 383.094,126.027 382.427,125.027 382.5,123.5 Z"/></g>
<g><path style="opacity:0.506" fill="#969696" d="M 288.5,124.5 C 288.573,126.027 287.906,127.027 286.5,127.5C 286.427,125.973 287.094,124.973 288.5,124.5 Z"/></g>
<g><path style="opacity:0.416" fill="#9e9e9e" d="M 384.5,126.5 C 385.906,126.973 386.573,127.973 386.5,129.5C 385.094,129.027 384.427,128.027 384.5,126.5 Z"/></g>
<g><path style="opacity:0.361" fill="#9f9f9f" d="M 282.5,134.5 C 282.573,136.027 281.906,137.027 280.5,137.5C 280.427,135.973 281.094,134.973 282.5,134.5 Z"/></g>
<g><path style="opacity:0.375" fill="#9d9d9d" d="M 360.5,147.5 C 361.461,149.265 361.795,151.265 361.5,153.5C 338.661,153.831 315.994,153.497 293.5,152.5C 315.833,152.5 338.167,152.5 360.5,152.5C 360.5,150.833 360.5,149.167 360.5,147.5 Z"/></g>
<g><path style="opacity:0.496" fill="#858585" d="M 394.5,159.5 C 395.434,160.568 395.768,161.901 395.5,163.5C 361.167,163.5 326.833,163.5 292.5,163.5C 326.329,162.502 360.329,162.168 394.5,162.5C 394.5,161.5 394.5,160.5 394.5,159.5 Z"/></g>
<g><path style="opacity:0.965" fill="#6b6b6b" d="M 294.5,184.5 C 295.768,186.905 296.435,189.572 296.5,192.5C 294.96,190.162 294.294,187.495 294.5,184.5 Z"/></g>
<g><path style="opacity:0.604" fill="#818181" d="M 304.5,210.5 C 305.906,210.973 306.573,211.973 306.5,213.5C 305.094,213.027 304.427,212.027 304.5,210.5 Z"/></g>
<g><path style="opacity:0.631" fill="#8b8b8b" d="M 384.5,212.5 C 384.262,214.404 383.262,215.738 381.5,216.5C 381.738,214.596 382.738,213.262 384.5,212.5 Z"/></g>
<g><path style="opacity:0.776" fill="#989898" d="M 310.5,217.5 C 312.167,218.5 313.5,219.833 314.5,221.5C 312.167,221.167 310.833,219.833 310.5,217.5 Z"/></g>
<g><path style="opacity:0.8" fill="#858585" d="M 380.5,218.5 C 380.262,220.404 379.262,221.738 377.5,222.5C 377.738,220.596 378.738,219.262 380.5,218.5 Z"/></g>
<g><path style="opacity:0.886" fill="#878787" d="M 282.5,232.5 C 284.048,232.821 284.715,233.821 284.5,235.5C 283.599,234.71 282.932,233.71 282.5,232.5 Z"/></g>
<g><path style="opacity:0.306" fill="#a6a6a6" d="M 299.5,250.5 C 301.027,250.427 302.027,251.094 302.5,252.5C 300.973,252.573 299.973,251.906 299.5,250.5 Z"/></g>
<g><path style="opacity:0.976" fill="#5e5e5e" d="M 313.5,257.5 C 316.152,257.41 318.485,258.076 320.5,259.5C 317.848,259.59 315.515,258.924 313.5,257.5 Z"/></g>
</svg>
