<?xml version="1.0" encoding="UTF-8"?>
<!DOCTYPE svg PUBLIC "-//W3C//DTD SVG 1.1//EN" "http://www.w3.org/Graphics/SVG/1.1/DTD/svg11.dtd">
<svg xmlns="http://www.w3.org/2000/svg" version="1.1" width="666px" height="374px" style="shape-rendering:geometricPrecision; text-rendering:geometricPrecision; image-rendering:optimizeQuality; fill-rule:evenodd; clip-rule:evenodd" xmlns:xlink="http://www.w3.org/1999/xlink">
<g><path style="opacity:1" fill="#131313" d="M 344.5,72.5 C 344.427,74.0269 345.094,75.0269 346.5,75.5C 351.707,84.9348 350.041,93.1015 341.5,100C 324.905,105.078 316.405,98.9111 316,81.5C 320.683,68.3768 329.517,64.5434 342.5,70C 343.381,70.7083 344.047,71.5416 344.5,72.5 Z"/></g>
<g><path style="opacity:0.776" fill="#878787" d="M 344.5,72.5 C 345.906,72.9731 346.573,73.9731 346.5,75.5C 345.094,75.0269 344.427,74.0269 344.5,72.5 Z"/></g>
<g><path style="opacity:1" fill="#101010" d="M 365.5,295.5 C 366.209,296.404 367.209,296.737 368.5,296.5C 368.5,298.167 368.5,299.833 368.5,301.5C 344.5,301.5 320.5,301.5 296.5,301.5C 296.5,299.5 296.5,297.5 296.5,295.5C 305.685,295.743 312.685,292.077 317.5,284.5C 319.28,283.01 319.946,281.01 319.5,278.5C 319.667,246.165 319.5,213.832 319,181.5C 316.383,172.933 310.55,168.933 301.5,169.5C 300.167,169.5 298.833,169.5 297.5,169.5C 295.992,167.829 295.659,165.996 296.5,164C 300.411,162.209 304.411,160.709 308.5,159.5C 311.152,159.59 313.485,158.924 315.5,157.5C 325.436,151.966 336.103,148.633 347.5,147.5C 347.333,190.835 347.5,234.168 348,277.5C 349.273,287.94 355.107,293.94 365.5,295.5 Z"/></g>
<g><path style="opacity:0.984" fill="#5c5c5c" d="M 315.5,157.5 C 313.485,158.924 311.152,159.59 308.5,159.5C 310.515,158.076 312.848,157.41 315.5,157.5 Z"/></g>
<g><path style="opacity:0.071" fill="#a8a8a8" d="M 297.5,169.5 C 298.833,169.5 300.167,169.5 301.5,169.5C 300.469,170.249 299.302,170.915 298,171.5C 297.536,170.906 297.369,170.239 297.5,169.5 Z"/></g>
<g><path style="opacity:0.973" fill="#727272" d="M 319.5,278.5 C 319.946,281.01 319.28,283.01 317.5,284.5C 317.875,282.302 318.542,280.302 319.5,278.5 Z"/></g>
<g><path style="opacity:0.372" fill="#9a9a9a" d="M 296.5,295.5 C 296.5,297.5 296.5,299.5 296.5,301.5C 320.5,301.5 344.5,301.5 368.5,301.5C 368.5,299.833 368.5,298.167 368.5,296.5C 367.209,296.737 366.209,296.404 365.5,295.5C 366.833,295.5 368.167,295.5 369.5,295.5C 369.5,297.833 369.5,300.167 369.5,302.5C 344.833,302.5 320.167,302.5 295.5,302.5C 295.198,299.941 295.532,297.607 296.5,295.5 Z"/></g>
</svg>
