<?xml version="1.0" encoding="UTF-8"?>
<!DOCTYPE svg PUBLIC "-//W3C//DTD SVG 1.1//EN" "http://www.w3.org/Graphics/SVG/1.1/DTD/svg11.dtd">
<svg xmlns="http://www.w3.org/2000/svg" version="1.1" width="666px" height="374px" style="shape-rendering:geometricPrecision; text-rendering:geometricPrecision; image-rendering:optimizeQuality; fill-rule:evenodd; clip-rule:evenodd" xmlns:xlink="http://www.w3.org/1999/xlink">
<g><path style="opacity:0.945" fill="#000000" d="M 246.5,147.5 C 249.833,147.5 253.167,147.5 256.5,147.5C 256.334,157.172 256.5,166.839 257,176.5C 267.856,162.641 281.689,153.141 298.5,148C 322.753,144.862 337.92,155.029 344,178.5C 353.871,165.951 366.038,156.451 380.5,150C 410.85,141.086 429.683,151.919 437,182.5C 438.272,214.14 438.939,245.806 439,277.5C 440.618,291.257 448.452,297.257 462.5,295.5C 462.5,297.833 462.5,300.167 462.5,302.5C 436.592,302.828 410.759,302.495 385,301.5C 384.257,299.559 384.424,297.726 385.5,296C 392.258,295.85 398.591,294.183 404.5,291C 407.903,286.795 409.736,281.962 410,276.5C 410.167,261.833 410.333,247.167 410.5,232.5C 410.636,216.449 410.136,200.449 409,184.5C 404.855,173.351 396.855,167.684 385,167.5C 369.779,168.777 357.113,175.11 347,186.5C 347.151,217.493 347.484,248.493 348,279.5C 348.91,286.734 352.743,291.568 359.5,294C 363.44,295.015 367.44,295.515 371.5,295.5C 371.5,297.833 371.5,300.167 371.5,302.5C 345.5,302.5 319.5,302.5 293.5,302.5C 293.5,300.167 293.5,297.833 293.5,295.5C 300.632,295.974 307.298,294.474 313.5,291C 316.874,287.557 318.707,283.39 319,278.5C 319.167,263.833 319.333,249.167 319.5,234.5C 319.636,218.449 319.136,202.449 318,186.5C 311.3,169.256 299.134,163.756 281.5,170C 272.174,173.903 264.007,179.403 257,186.5C 256.333,217.167 256.333,247.833 257,278.5C 259.608,291.263 267.441,296.929 280.5,295.5C 280.5,297.833 280.5,300.167 280.5,302.5C 254.833,302.5 229.167,302.5 203.5,302.5C 203.5,300.167 203.5,297.833 203.5,295.5C 209.744,295.515 215.744,294.349 221.5,292C 224.515,289.137 226.349,285.637 227,281.5C 228.622,249.534 228.955,217.534 228,185.5C 225.733,171.175 217.566,166.008 203.5,170C 201.984,168.103 201.317,165.936 201.5,163.5C 216.868,158.972 231.868,153.639 246.5,147.5 Z"/></g>
</svg>
