<?xml version="1.0" encoding="UTF-8"?>
<!DOCTYPE svg PUBLIC "-//W3C//DTD SVG 1.1//EN" "http://www.w3.org/Graphics/SVG/1.1/DTD/svg11.dtd">
<svg xmlns="http://www.w3.org/2000/svg" version="1.1" width="666px" height="374px" style="shape-rendering:geometricPrecision; text-rendering:geometricPrecision; image-rendering:optimizeQuality; fill-rule:evenodd; clip-rule:evenodd" xmlns:xlink="http://www.w3.org/1999/xlink">
<g><path style="opacity:1" fill="#101010" d="M 387.5,170.5 C 387.738,172.404 388.738,173.738 390.5,174.5C 391.833,175.167 392.833,176.167 393.5,177.5C 393.427,179.027 394.094,180.027 395.5,180.5C 395.427,182.027 396.094,183.027 397.5,183.5C 412.862,212.973 411.695,241.973 394,270.5C 375.987,297.254 350.82,309.087 318.5,306C 316.618,305.802 314.952,305.302 313.5,304.5C 311.485,303.076 309.152,302.41 306.5,302.5C 303.088,301.958 300.088,300.625 297.5,298.5C 297.027,297.094 296.027,296.427 294.5,296.5C 293.508,296.672 292.842,296.338 292.5,295.5C 292.027,294.094 291.027,293.427 289.5,293.5C 288.738,291.738 287.404,290.738 285.5,290.5C 284.833,290.5 284.5,290.167 284.5,289.5C 284.027,288.094 283.027,287.427 281.5,287.5C 265.604,272.184 257.27,253.35 256.5,231C 257.201,218.83 259.701,206.996 264,195.5C 266.778,189.588 270.278,184.255 274.5,179.5C 275.906,179.027 276.573,178.027 276.5,176.5C 286.642,163.592 299.642,154.925 315.5,150.5C 318.152,150.59 320.485,149.924 322.5,148.5C 348.21,144.292 369.877,151.625 387.5,170.5 Z M 347.5,164.5 C 347.973,165.906 348.973,166.573 350.5,166.5C 350.833,167.5 351.5,168.167 352.5,168.5C 352.973,169.906 353.973,170.573 355.5,170.5C 358.5,174.5 361.5,178.5 364.5,182.5C 364.932,183.71 365.599,184.71 366.5,185.5C 381.084,214.75 382.084,244.417 369.5,274.5C 368.094,274.973 367.427,275.973 367.5,277.5C 366.094,277.973 365.427,278.973 365.5,280.5C 363.11,281.891 361.443,283.891 360.5,286.5C 358.973,286.427 357.973,287.094 357.5,288.5C 355.181,288.992 353.181,289.992 351.5,291.5C 348.341,292.331 345.341,293.331 342.5,294.5C 323.248,294.791 309.081,286.458 300,269.5C 287.328,245.419 283.995,220.086 290,193.5C 298.745,162.878 317.912,153.211 347.5,164.5 Z"/></g>
<g><path style="opacity:0.941" fill="#616161" d="M 322.5,148.5 C 320.485,149.924 318.152,150.59 315.5,150.5C 317.515,149.076 319.848,148.41 322.5,148.5 Z"/></g>
<g><path style="opacity:0.565" fill="#808080" d="M 347.5,164.5 C 349.027,164.427 350.027,165.094 350.5,166.5C 348.973,166.573 347.973,165.906 347.5,164.5 Z"/></g>
<g><path style="opacity:0.686" fill="#939393" d="M 352.5,168.5 C 354.027,168.427 355.027,169.094 355.5,170.5C 353.973,170.573 352.973,169.906 352.5,168.5 Z"/></g>
<g><path style="opacity:0.761" fill="#939393" d="M 387.5,170.5 C 389.262,171.262 390.262,172.596 390.5,174.5C 388.738,173.738 387.738,172.404 387.5,170.5 Z"/></g>
<g><path style="opacity:0.776" fill="#8a8a8a" d="M 276.5,176.5 C 276.573,178.027 275.906,179.027 274.5,179.5C 274.427,177.973 275.094,176.973 276.5,176.5 Z"/></g>
<g><path style="opacity:0.459" fill="#9b9b9b" d="M 393.5,177.5 C 394.906,177.973 395.573,178.973 395.5,180.5C 394.094,180.027 393.427,179.027 393.5,177.5 Z"/></g>
<g><path style="opacity:0.929" fill="#7e7e7e" d="M 364.5,182.5 C 366.048,182.821 366.715,183.821 366.5,185.5C 365.599,184.71 364.932,183.71 364.5,182.5 Z"/></g>
<g><path style="opacity:0.376" fill="#9d9d9d" d="M 395.5,180.5 C 396.906,180.973 397.573,181.973 397.5,183.5C 396.094,183.027 395.427,182.027 395.5,180.5 Z"/></g>
<g><path style="opacity:0.455" fill="#919191" d="M 369.5,274.5 C 369.573,276.027 368.906,277.027 367.5,277.5C 367.427,275.973 368.094,274.973 369.5,274.5 Z"/></g>
<g><path style="opacity:0.557" fill="#8f8f8f" d="M 367.5,277.5 C 367.573,279.027 366.906,280.027 365.5,280.5C 365.427,278.973 366.094,277.973 367.5,277.5 Z"/></g>
<g><path style="opacity:0.737" fill="#8f8f8f" d="M 281.5,287.5 C 283.027,287.427 284.027,288.094 284.5,289.5C 282.973,289.573 281.973,288.906 281.5,287.5 Z"/></g>
<g><path style="opacity:0.694" fill="#8c8c8c" d="M 360.5,286.5 C 360.027,287.906 359.027,288.573 357.5,288.5C 357.973,287.094 358.973,286.427 360.5,286.5 Z"/></g>
<g><path style="opacity:0.718" fill="#7c7c7c" d="M 285.5,290.5 C 287.404,290.738 288.738,291.738 289.5,293.5C 287.596,293.262 286.262,292.262 285.5,290.5 Z"/></g>
<g><path style="opacity:0.969" fill="#5c5c5c" d="M 351.5,291.5 C 349.081,293.862 346.081,294.862 342.5,294.5C 345.341,293.331 348.341,292.331 351.5,291.5 Z"/></g>
<g><path style="opacity:0.443" fill="#949494" d="M 289.5,293.5 C 291.027,293.427 292.027,294.094 292.5,295.5C 290.973,295.573 289.973,294.906 289.5,293.5 Z"/></g>
<g><path style="opacity:0.38" fill="#9e9e9e" d="M 294.5,296.5 C 296.027,296.427 297.027,297.094 297.5,298.5C 295.973,298.573 294.973,297.906 294.5,296.5 Z"/></g>
<g><path style="opacity:0.973" fill="#5d5d5d" d="M 306.5,302.5 C 309.152,302.41 311.485,303.076 313.5,304.5C 310.848,304.59 308.515,303.924 306.5,302.5 Z"/></g>
</svg>
