<?xml version="1.0" encoding="UTF-8"?>
<!DOCTYPE svg PUBLIC "-//W3C//DTD SVG 1.1//EN" "http://www.w3.org/Graphics/SVG/1.1/DTD/svg11.dtd">
<svg xmlns="http://www.w3.org/2000/svg" version="1.1" width="666px" height="374px" style="shape-rendering:geometricPrecision; text-rendering:geometricPrecision; image-rendering:optimizeQuality; fill-rule:evenodd; clip-rule:evenodd" xmlns:xlink="http://www.w3.org/1999/xlink">
<g><path style="opacity:0.949" fill="#000000" d="M 322.5,101.5 C 325.167,101.5 327.833,101.5 330.5,101.5C 330.334,111.506 330.5,121.506 331,131.5C 337.313,117.853 347.48,108.353 361.5,103C 375.135,98.6781 384.968,102.845 391,115.5C 393.051,127.279 388.218,134.279 376.5,136.5C 374.5,136 372.5,135.5 370.5,135C 365.882,132.05 361.548,128.716 357.5,125C 351.579,123.586 346.579,125.086 342.5,129.5C 338.422,134.657 334.588,139.99 331,145.5C 330.039,175.873 330.373,206.207 332,236.5C 334.072,244.573 339.239,249.073 347.5,250C 351.486,250.499 355.486,250.666 359.5,250.5C 359.5,252.5 359.5,254.5 359.5,256.5C 332.5,256.5 305.5,256.5 278.5,256.5C 278.5,254.5 278.5,252.5 278.5,250.5C 290.451,251.624 298.284,246.624 302,235.5C 302.167,218.833 302.333,202.167 302.5,185.5C 302.647,167.77 302.147,150.103 301,132.5C 300.167,129 298,126.833 294.5,126C 289.771,125.004 285.271,125.504 281,127.5C 279.787,125.87 278.954,124.036 278.5,122C 293.127,115.069 307.793,108.236 322.5,101.5 Z"/></g>
</svg>
