<?xml version="1.0" encoding="UTF-8"?>
<!DOCTYPE svg PUBLIC "-//W3C//DTD SVG 1.1//EN" "http://www.w3.org/Graphics/SVG/1.1/DTD/svg11.dtd">
<svg xmlns="http://www.w3.org/2000/svg" version="1.1" width="666px" height="374px" style="shape-rendering:geometricPrecision; text-rendering:geometricPrecision; image-rendering:optimizeQuality; fill-rule:evenodd; clip-rule:evenodd" xmlns:xlink="http://www.w3.org/1999/xlink">
<g><path style="opacity:1" fill="#111111" d="M 373.5,151.5 C 371.5,151.5 369.5,151.5 367.5,151.5C 367.737,150.209 367.404,149.209 366.5,148.5C 364.328,135.808 358.328,125.474 348.5,117.5C 348.027,116.094 347.027,115.427 345.5,115.5C 335.107,111.378 324.774,111.545 314.5,116C 304.097,123.114 301.931,132.281 308,143.5C 311.742,147.747 315.908,151.414 320.5,154.5C 321.035,156.446 322.368,157.446 324.5,157.5C 337.511,163.673 350.177,170.507 362.5,178C 368.302,182.8 373.802,187.967 379,193.5C 389.279,215.332 385.779,234.499 368.5,251C 349.699,262.819 330.032,264.652 309.5,256.5C 307.485,255.076 305.152,254.41 302.5,254.5C 297.307,255.966 291.973,256.633 286.5,256.5C 286.5,239.5 286.5,222.5 286.5,205.5C 288.792,205.244 290.959,205.577 293,206.5C 294.063,214.188 296.23,221.521 299.5,228.5C 299.427,230.027 300.094,231.027 301.5,231.5C 309.908,243.038 321.241,249.371 335.5,250.5C 357.115,247.94 364.615,236.273 358,215.5C 355.999,212.669 353.833,210.003 351.5,207.5C 351.027,206.094 350.027,205.427 348.5,205.5C 347.5,205.167 346.833,204.5 346.5,203.5C 346.027,202.094 345.027,201.427 343.5,201.5C 343.027,200.094 342.027,199.427 340.5,199.5C 328.975,193.91 317.975,187.576 307.5,180.5C 307.027,179.094 306.027,178.427 304.5,178.5C 304.027,177.094 303.027,176.427 301.5,176.5C 290.189,168.381 284.523,157.214 284.5,143C 287.189,119.642 300.189,105.975 323.5,102C 330.208,101.362 336.874,101.695 343.5,103C 349.087,104.807 354.753,106.307 360.5,107.5C 364.693,105.934 369.026,105.268 373.5,105.5C 373.5,120.833 373.5,136.167 373.5,151.5 Z"/></g>
<g><path style="opacity:0.549" fill="#898989" d="M 345.5,115.5 C 347.027,115.427 348.027,116.094 348.5,117.5C 346.973,117.573 345.973,116.906 345.5,115.5 Z"/></g>
<g><path style="opacity:0.367" fill="#a1a1a1" d="M 366.5,148.5 C 367.404,149.209 367.737,150.209 367.5,151.5C 369.5,151.5 371.5,151.5 373.5,151.5C 371.393,152.468 369.059,152.802 366.5,152.5C 366.5,151.167 366.5,149.833 366.5,148.5 Z"/></g>
<g><path style="opacity:0.949" fill="#858585" d="M 320.5,154.5 C 322.23,155.026 323.564,156.026 324.5,157.5C 322.368,157.446 321.035,156.446 320.5,154.5 Z"/></g>
<g><path style="opacity:0.467" fill="#979797" d="M 301.5,176.5 C 303.027,176.427 304.027,177.094 304.5,178.5C 302.973,178.573 301.973,177.906 301.5,176.5 Z"/></g>
<g><path style="opacity:0.439" fill="#949494" d="M 304.5,178.5 C 306.027,178.427 307.027,179.094 307.5,180.5C 305.973,180.573 304.973,179.906 304.5,178.5 Z"/></g>
<g><path style="opacity:0.729" fill="#8e8e8e" d="M 340.5,199.5 C 342.027,199.427 343.027,200.094 343.5,201.5C 341.973,201.573 340.973,200.906 340.5,199.5 Z"/></g>
<g><path style="opacity:0.624" fill="#7c7c7c" d="M 343.5,201.5 C 345.027,201.427 346.027,202.094 346.5,203.5C 344.973,203.573 343.973,202.906 343.5,201.5 Z"/></g>
<g><path style="opacity:0.71" fill="#969696" d="M 348.5,205.5 C 350.027,205.427 351.027,206.094 351.5,207.5C 349.973,207.573 348.973,206.906 348.5,205.5 Z"/></g>
<g><path style="opacity:0.443" fill="#959595" d="M 299.5,228.5 C 300.906,228.973 301.573,229.973 301.5,231.5C 300.094,231.027 299.427,230.027 299.5,228.5 Z"/></g>
<g><path style="opacity:0.976" fill="#5d5d5d" d="M 302.5,254.5 C 305.152,254.41 307.485,255.076 309.5,256.5C 306.848,256.59 304.515,255.924 302.5,254.5 Z"/></g>
</svg>
