<?xml version="1.0" encoding="UTF-8"?>
<!DOCTYPE svg PUBLIC "-//W3C//DTD SVG 1.1//EN" "http://www.w3.org/Graphics/SVG/1.1/DTD/svg11.dtd">
<svg xmlns="http://www.w3.org/2000/svg" version="1.1" width="666px" height="374px" style="shape-rendering:geometricPrecision; text-rendering:geometricPrecision; image-rendering:optimizeQuality; fill-rule:evenodd; clip-rule:evenodd" xmlns:xlink="http://www.w3.org/1999/xlink">
<g><path style="opacity:0.627" fill="#5e5e5e" d="M 431.5,83.5 C 430.566,82.4324 430.232,81.099 430.5,79.5C 365.167,79.5 299.833,79.5 234.5,79.5C 234.784,81.4147 234.451,83.0813 233.5,84.5C 233.5,82.5 233.5,80.5 233.5,78.5C 299.5,78.5 365.5,78.5 431.5,78.5C 431.5,80.1667 431.5,81.8333 431.5,83.5 Z"/></g>
<g><path style="opacity:1" fill="#070707" d="M 431.5,83.5 C 432.274,98.8219 432.941,114.155 433.5,129.5C 430.833,129.5 428.167,129.5 425.5,129.5C 424.653,122.626 422.986,115.96 420.5,109.5C 420.446,107.368 419.446,106.035 417.5,105.5C 415.833,104.5 414.5,103.167 413.5,101.5C 413.027,100.094 412.027,99.427 410.5,99.5C 404.566,96.3002 398.233,94.3002 391.5,93.5C 377.677,92.5042 363.677,92.1709 349.5,92.5C 349.168,154.336 349.501,216.002 350.5,277.5C 351.354,282.434 353.688,286.434 357.5,289.5C 357.821,291.048 358.821,291.715 360.5,291.5C 365.691,293.464 371.024,294.798 376.5,295.5C 377.919,296.451 379.585,296.784 381.5,296.5C 381.5,298.167 381.5,299.833 381.5,301.5C 348.5,301.5 315.5,301.5 282.5,301.5C 281.193,299.777 281.193,297.943 282.5,296C 291.512,295.893 299.845,293.559 307.5,289C 311.399,284.979 313.566,280.145 314,274.5C 314.5,214.168 314.667,153.834 314.5,93.5C 299.163,93.3334 283.83,93.5001 268.5,94C 249.327,98.0111 239.327,109.844 238.5,129.5C 236.167,129.5 233.833,129.5 231.5,129.5C 232.038,114.484 232.705,99.4839 233.5,84.5C 234.451,83.0813 234.784,81.4147 234.5,79.5C 299.833,79.5 365.167,79.5 430.5,79.5C 430.232,81.099 430.566,82.4324 431.5,83.5 Z"/></g>
<g><path style="opacity:0.321" fill="#a4a4a4" d="M 391.5,93.5 C 377.833,93.5 364.167,93.5 350.5,93.5C 350.5,154.833 350.5,216.167 350.5,277.5C 349.501,216.002 349.168,154.336 349.5,92.5C 363.677,92.1709 377.677,92.5042 391.5,93.5 Z"/></g>
<g><path style="opacity:0.733" fill="#8e8e8e" d="M 410.5,99.5 C 412.027,99.427 413.027,100.094 413.5,101.5C 411.973,101.573 410.973,100.906 410.5,99.5 Z"/></g>
<g><path style="opacity:0.976" fill="#777777" d="M 417.5,105.5 C 419.446,106.035 420.446,107.368 420.5,109.5C 419.026,108.564 418.026,107.23 417.5,105.5 Z"/></g>
<g><path style="opacity:0.941" fill="#7c7c7c" d="M 357.5,289.5 C 358.71,289.932 359.71,290.599 360.5,291.5C 358.821,291.715 357.821,291.048 357.5,289.5 Z"/></g>
<g><path style="opacity:0.373" fill="#979797" d="M 376.5,295.5 C 378.5,295.5 380.5,295.5 382.5,295.5C 382.5,297.833 382.5,300.167 382.5,302.5C 348.996,302.832 315.662,302.498 282.5,301.5C 315.5,301.5 348.5,301.5 381.5,301.5C 381.5,299.833 381.5,298.167 381.5,296.5C 379.585,296.784 377.919,296.451 376.5,295.5 Z"/></g>
</svg>
