<?xml version="1.0" encoding="UTF-8"?>
<!DOCTYPE svg PUBLIC "-//W3C//DTD SVG 1.1//EN" "http://www.w3.org/Graphics/SVG/1.1/DTD/svg11.dtd">
<svg xmlns="http://www.w3.org/2000/svg" version="1.1" width="666px" height="374px" style="shape-rendering:geometricPrecision; text-rendering:geometricPrecision; image-rendering:optimizeQuality; fill-rule:evenodd; clip-rule:evenodd" xmlns:xlink="http://www.w3.org/1999/xlink">
<g><path style="opacity:0.632" fill="#606060" d="M 219.5,79.5 C 250.996,78.5018 282.662,78.1685 314.5,78.5C 314.795,80.7354 314.461,82.7354 313.5,84.5C 313.5,82.8333 313.5,81.1667 313.5,79.5C 282.167,79.5 250.833,79.5 219.5,79.5 Z"/></g>
<g><path style="opacity:0.631" fill="#6b6b6b" d="M 445.5,84.5 C 445.5,82.8333 445.5,81.1667 445.5,79.5C 423.167,79.5 400.833,79.5 378.5,79.5C 378.5,81.1667 378.5,82.8333 378.5,84.5C 377.539,82.7354 377.205,80.7354 377.5,78.5C 400.5,78.5 423.5,78.5 446.5,78.5C 446.795,80.7354 446.461,82.7354 445.5,84.5 Z"/></g>
<g><path style="opacity:1" fill="#0f0f0f" d="M 219.5,79.5 C 250.833,79.5 282.167,79.5 313.5,79.5C 313.5,81.1667 313.5,82.8333 313.5,84.5C 307.34,84.9057 301.34,86.0724 295.5,88C 290.741,92.4908 289.241,97.9908 291,104.5C 308.83,151.827 327.496,198.827 347,245.5C 364.66,198.843 382.327,152.177 400,105.5C 401.131,100.086 400.297,95.0855 397.5,90.5C 397.027,89.0937 396.027,88.427 394.5,88.5C 389.296,86.541 383.963,85.2077 378.5,84.5C 378.5,82.8333 378.5,81.1667 378.5,79.5C 400.833,79.5 423.167,79.5 445.5,79.5C 445.5,81.1667 445.5,82.8333 445.5,84.5C 437.242,86.0465 430.408,90.0465 425,96.5C 419.559,104.38 414.892,112.714 411,121.5C 387.5,183.167 364,244.833 340.5,306.5C 338.235,307.647 335.902,307.814 333.5,307C 308.078,245.734 283.245,184.234 259,122.5C 254.688,111.198 248.854,100.865 241.5,91.5C 241.027,90.0937 240.027,89.427 238.5,89.5C 232.762,87.0654 226.762,85.5654 220.5,85C 219.594,83.3005 219.261,81.4672 219.5,79.5 Z"/></g>
<g><path style="opacity:0.612" fill="#7e7e7e" d="M 394.5,88.5 C 396.027,88.427 397.027,89.0937 397.5,90.5C 395.973,90.573 394.973,89.9063 394.5,88.5 Z"/></g>
<g><path style="opacity:0.518" fill="#929292" d="M 238.5,89.5 C 240.027,89.427 241.027,90.0937 241.5,91.5C 239.973,91.573 238.973,90.9063 238.5,89.5 Z"/></g>
</svg>
